<?xml version="1.0" encoding="UTF-8" standalone="no"?><!DOCTYPE svg PUBLIC "-//W3C//DTD SVG 1.1//EN" "http://www.w3.org/Graphics/SVG/1.1/DTD/svg11.dtd"><svg width="100%" height="100%" viewBox="0 0 1250 1250" version="1.1" xmlns="http://www.w3.org/2000/svg" xmlns:xlink="http://www.w3.org/1999/xlink" xml:space="preserve" xmlns:serif="http://www.serif.com/" style="fill-rule:evenodd;clip-rule:evenodd;stroke-linejoin:round;stroke-miterlimit:2;"><g id="DanaRS"><path d="M320.307,205.83l609.386,-0l0,1040.02l-609.386,0l-0,-1040.02Zm33.152,32.804l-0,976.134l546.21,0l-0,-976.134l-546.21,0Z" style="fill:#fff;"/><path id="Display" d="M562.925,623.006l223.421,0l-0,457.642l-223.421,-0l-0,-457.642Z" style="fill:#fff;"/><path d="M540.508,228.119l367.375,-0l-0,395.013l-367.375,0l0,-395.013Z" style="fill:#fff;"/><path d="M540.508,1080.01l367.375,-0l-0,141.647l-367.375,0l0,-141.647Z" style="fill:#fff;"/><path d="M785.582,580.872l122.301,-0l-0,569.957l-122.301,0l-0,-569.957Z" style="fill:#fff;"/><path d="M560.46,205.821l-239.98,0l59.995,-205.821l119.99,0l59.995,205.821Z" style="fill:#fff;"/><path d="M504.073,12.378l56.387,193.443l-239.98,0l56.387,-193.443l127.206,0Zm-123.663,-12.153l0.065,-0.225l119.99,0l0.066,0.225l-120.121,0Z" style="fill:#7a7e83;"/><path d="M345.799,228.119l217.68,-0l-0,993.534l-217.68,0l-0,-993.534Z" style="fill:#fff;"/></g></svg>