<?xml version="1.0" encoding="UTF-8" standalone="no"?>
<!DOCTYPE svg PUBLIC "-//W3C//DTD SVG 1.1//EN" "http://www.w3.org/Graphics/SVG/1.1/DTD/svg11.dtd">
<svg width="100%" height="100%" viewBox="0 0 900 900" version="1.1" xmlns="http://www.w3.org/2000/svg" xmlns:xlink="http://www.w3.org/1999/xlink" xml:space="preserve" xmlns:serif="http://www.serif.com/" style="fill-rule:evenodd;clip-rule:evenodd;stroke-linejoin:round;stroke-miterlimit:2;">
    <g id="Medtronic" transform="matrix(1.14895,0,0,1.14895,-66.9791,-66.795)">
        <g id="Display" transform="matrix(0.869806,0,0,0.857853,58.6518,-186.258)">
            <rect x="209.724" y="538.186" width="480.305" height="249.586" style="fill:white;fill-opacity:0.8;"/>
        </g>
        <g transform="matrix(0.890609,0,0,0.758465,56.421,138.817)">
            <path d="M92.583,451.044L92.583,153.88C92.583,121.147 115.215,94.573 143.091,94.573L828.673,94.573C856.549,94.573 879.181,121.147 879.181,153.88L879.181,662.847C879.181,695.579 856.549,722.154 828.673,722.154L152.219,722.154L152.219,694.279C153.063,694.344 153.915,694.377 154.772,694.377L816.991,694.377C838.37,694.377 855.727,673.996 855.727,648.893L855.727,167.834C855.727,142.731 838.37,122.35 816.991,122.35L154.772,122.35C133.394,122.35 116.037,142.731 116.037,167.834L116.037,451.044L92.583,451.044Z" style="fill:white;"/>
        </g>
        <g transform="matrix(1.397,0,0,0.979106,29.3955,-11.224)">
            <rect x="20.687" y="502.645" width="34.189" height="210.141" style="fill:rgb(122,126,131);"/>
        </g>
        <g transform="matrix(1.20445,0,0,0.870358,17.069,58.1356)">
            <rect x="54.877" y="485.757" width="63.503" height="236.397" style="fill:white;"/>
        </g>
    </g>
</svg>
