<?xml version="1.0" encoding="UTF-8" standalone="no"?><!DOCTYPE svg PUBLIC "-//W3C//DTD SVG 1.1//EN" "http://www.w3.org/Graphics/SVG/1.1/DTD/svg11.dtd"><svg width="100%" height="100%" viewBox="0 0 1250 1250" version="1.1" xmlns="http://www.w3.org/2000/svg" xmlns:xlink="http://www.w3.org/1999/xlink" xml:space="preserve" xmlns:serif="http://www.serif.com/" style="fill-rule:evenodd;clip-rule:evenodd;stroke-linejoin:round;stroke-miterlimit:2;"><g id="Medtronic"><rect id="Display" x="292.375" y="345.152" width="668.286" height="342.497" style="fill:#fff;fill-opacity:0.8;"/><path d="M128.899,673.865l0,-360.541c0,-39.713 32.243,-71.956 71.957,-71.956l976.719,-0c39.714,-0 71.957,32.243 71.957,71.956l-0,617.516c-0,39.714 -32.243,71.956 -71.957,71.956l-963.714,0l0,-33.819c1.202,0.078 2.415,0.118 3.637,0.118l943.435,-0c30.457,-0 55.184,-24.727 55.184,-55.185l0,-583.656c0,-30.457 -24.727,-55.185 -55.184,-55.185l-943.435,0c-30.457,0 -55.184,24.728 -55.184,55.185l-0,343.611l-33.415,0Z" style="fill:#fff;"/><rect x="-0" y="673.865" width="76.403" height="329.127" style="fill:#7a7e83;"/><rect x="39.783" y="673.865" width="122.351" height="329.127" style="fill:#fff;"/></g></svg>