<?xml version="1.0" encoding="UTF-8" standalone="no"?>
<!DOCTYPE svg PUBLIC "-//W3C//DTD SVG 1.1//EN" "http://www.w3.org/Graphics/SVG/1.1/DTD/svg11.dtd">
<svg width="100%" height="100%" viewBox="0 0 63 63" version="1.1" xmlns="http://www.w3.org/2000/svg" xmlns:xlink="http://www.w3.org/1999/xlink" xml:space="preserve" xmlns:serif="http://www.serif.com/" style="fill-rule:evenodd;clip-rule:evenodd;stroke-linejoin:round;stroke-miterlimit:2;">
    <g id="carbs" transform="matrix(0.910718,0,0,0.935489,2.67978,-0.757278)">
        <g transform="matrix(1,0,0,1,31.6456,10.942)">
            <path d="M0,37.65C-17.559,37.65 -31.843,29.205 -31.843,18.825C-31.843,12.993 -27.432,7.597 -19.739,4.021C-19.233,3.786 -18.633,4.006 -18.398,4.512C-18.162,5.017 -18.382,5.618 -18.888,5.853C-25.837,9.084 -29.823,13.812 -29.823,18.825C-29.823,28.091 -16.444,35.63 0,35.63C16.444,35.63 29.823,28.091 29.823,18.825C29.823,9.559 16.444,2.02 0,2.02C-1.054,2.02 -2.113,2.052 -3.148,2.114C-3.706,2.147 -4.183,1.723 -4.216,1.166C-4.25,0.609 -3.825,0.131 -3.268,0.097C-2.194,0.033 -1.094,0 0,0C17.559,0 31.843,8.445 31.843,18.825C31.843,29.205 17.559,37.65 0,37.65" style="fill:white;fill-rule:nonzero;"/>
        </g>
        <g transform="matrix(1,0,0,1,31.6456,27.9862)">
            <path d="M0,34.823C-17.559,34.823 -31.843,19.654 -31.843,1.01C-31.843,0.452 -31.391,0 -30.833,0C-30.276,0 -29.823,0.452 -29.823,1.01C-29.823,18.541 -16.444,32.803 0,32.803C16.444,32.803 29.823,18.541 29.823,1.01C29.823,0.452 30.275,0 30.833,0C31.391,0 31.843,0.452 31.843,1.01C31.843,19.654 17.559,34.823 0,34.823" style="fill:white;fill-rule:nonzero;"/>
        </g>
        <g transform="matrix(1,0,0,1,36.683,0.711)">
            <path d="M0,22.384C-0.258,22.384 -0.517,22.285 -0.714,22.088L-10.847,11.955C-11.241,11.561 -11.241,10.922 -10.847,10.527L-0.714,0.394C-0.32,0 0.32,0 0.714,0.394C1.109,0.789 1.109,1.428 0.714,1.822L-8.704,11.241L0.714,20.66C1.109,21.054 1.109,21.694 0.714,22.088C0.517,22.285 0.258,22.384 0,22.384" style="fill:white;fill-rule:nonzero;"/>
        </g>
        <g transform="matrix(1,0,0,1,31.6101,36.8565)">
            <path d="M0,9.712L0.343,9.715L0.344,9.715C1.52,9.715 7.55,9.552 10.883,6.335C10.882,6.335 11.548,5.63 11.494,4.775C11.457,4.193 11.084,3.615 10.385,3.055C10.297,2.977 6.968,-0.004 0.036,-0.004C-6.896,-0.004 -10.226,2.977 -10.258,3.008C-11.018,3.619 -11.391,4.202 -11.423,4.788C-11.47,5.638 -10.806,6.34 -10.8,6.346C-7.479,9.553 -1.448,9.715 -0.272,9.715L0,9.712ZM0.344,11.736L0.343,11.736C0.174,11.736 0.063,11.733 0.019,11.732C0.009,11.733 -0.103,11.736 -0.272,11.736C-2.115,11.736 -8.421,11.451 -12.214,7.788C-12.36,7.643 -13.535,6.418 -13.44,4.678C-13.376,3.493 -12.748,2.417 -11.577,1.478C-11.481,1.384 -7.752,-2.024 0.036,-2.024C7.824,-2.024 11.552,1.384 11.707,1.529C12.82,2.417 13.447,3.493 13.511,4.678C13.607,6.418 12.432,7.643 12.298,7.777C8.493,11.45 2.187,11.736 0.344,11.736" style="fill:white;fill-rule:nonzero;"/>
        </g>
    </g>
</svg>
