<?xml version="1.0" encoding="UTF-8" standalone="no"?>
<!DOCTYPE svg PUBLIC "-//W3C//DTD SVG 1.1//EN" "http://www.w3.org/Graphics/SVG/1.1/DTD/svg11.dtd">
<svg width="100%" height="100%" viewBox="0 0 1320 1320" version="1.1" xmlns="http://www.w3.org/2000/svg" xmlns:xlink="http://www.w3.org/1999/xlink" xml:space="preserve" xmlns:serif="http://www.serif.com/" style="fill-rule:evenodd;clip-rule:evenodd;stroke-linejoin:round;stroke-miterlimit:2;">
    <g id="carbs" transform="matrix(1.1846,0,0,1.04933,-192.732,25.0578)">
        <g id="carbsCollection">
            <g id="carbs1" serif:id="carbs">
                <g id="Stengel" transform="matrix(1,0,0,1,-1.45313,-1.76563)">
                    <g id="carbs2" serif:id="carbs" transform="matrix(1.3898,0.88492,-0.397475,0.624249,364.571,77.9025)">
                        <path d="M350.816,798.852L363.664,848.836L337.969,848.836L350.816,798.852Z" style="fill:white;"/>
                    </g>
                    <g transform="matrix(0.773265,0.463446,-0.209359,0.349318,333.128,372.329)">
                        <rect x="461.797" y="918.336" width="45.93" height="297.227" style="fill:white;"/>
                    </g>
                </g>
                <g transform="matrix(0.948464,-0.1323,-0.146088,-1.04731,410.258,971.122)">
                    <path d="M495.414,428.172C494.968,424.983 482.9,423.441 470.793,416.146C451.108,404.283 428.033,384.322 427.123,376.914C422.524,339.456 459.762,316.09 518.085,325.335C571.938,333.873 614.443,375.821 621.695,401.647C621.918,402.441 621.865,403.103 621.57,403.649C603.613,398.782 581.914,397.675 559.314,401.387C533.26,405.667 510.811,415.563 495.414,428.172Z" style="fill:white;"/>
                </g>
                <g transform="matrix(0.948464,-0.1323,-0.146088,-1.04731,339.254,1085.98)">
                    <path d="M495.414,428.172C494.968,424.983 482.9,423.441 470.793,416.146C451.108,404.283 428.033,384.322 427.123,376.914C422.524,339.456 459.762,316.09 518.085,325.335C571.938,333.873 614.443,375.821 621.695,401.647C621.918,402.441 621.865,403.103 621.57,403.649C603.613,398.782 581.914,397.675 559.314,401.387C533.26,405.667 510.811,415.563 495.414,428.172Z" style="fill:white;"/>
                </g>
                <g transform="matrix(0.948464,-0.1323,-0.146088,-1.04731,271.637,1201.88)">
                    <path d="M495.414,428.172C494.968,424.983 482.9,423.441 470.793,416.146C451.108,404.283 428.033,384.322 427.123,376.914C422.524,339.456 459.762,316.09 518.085,325.335C571.938,333.873 614.443,375.821 621.695,401.647C621.918,402.441 621.865,403.103 621.57,403.649C603.613,398.782 581.914,397.675 559.314,401.387C533.26,405.667 510.811,415.563 495.414,428.172Z" style="fill:white;"/>
                </g>
                <g transform="matrix(0.948464,-0.1323,-0.146088,-1.04731,201.676,1314.57)">
                    <path d="M495.414,428.172C494.968,424.983 482.9,423.441 470.793,416.146C451.108,404.283 428.033,384.322 427.123,376.914C422.524,339.456 459.762,316.09 518.085,325.335C571.938,333.873 614.443,375.821 621.695,401.647C621.918,402.441 621.865,403.103 621.57,403.649C603.613,398.782 581.914,397.675 559.314,401.387C533.26,405.667 510.811,415.563 495.414,428.172Z" style="fill:white;"/>
                </g>
                <g transform="matrix(-0.339094,-0.895602,0.988941,-0.374434,527.203,1040.18)">
                    <path d="M495.414,428.172C494.968,424.983 482.9,423.441 470.793,416.146C451.108,404.283 428.033,384.322 427.123,376.914C422.524,339.456 459.762,316.09 518.085,325.335C571.938,333.873 614.443,375.821 621.695,401.647C621.918,402.441 621.865,403.103 621.57,403.649C603.613,398.782 581.914,397.675 559.314,401.387C533.26,405.667 510.811,415.563 495.414,428.172Z" style="fill:white;"/>
                </g>
                <g transform="matrix(-0.339094,-0.895602,0.988941,-0.374434,456.281,1153.48)">
                    <path d="M495.414,428.172C494.968,424.983 482.9,423.441 470.793,416.146C451.108,404.283 428.033,384.322 427.123,376.914C422.524,339.456 459.762,316.09 518.085,325.335C571.938,333.873 614.443,375.821 621.695,401.647C621.918,402.441 621.865,403.103 621.57,403.649C603.613,398.782 581.914,397.675 559.314,401.387C533.26,405.667 510.811,415.563 495.414,428.172Z" style="fill:white;"/>
                </g>
                <g transform="matrix(-0.339094,-0.895602,0.988941,-0.374434,388.271,1268.94)">
                    <path d="M495.414,428.172C494.968,424.983 482.9,423.441 470.793,416.146C451.108,404.283 428.033,384.322 427.123,376.914C422.524,339.456 459.762,316.09 518.085,325.335C571.938,333.873 614.443,375.821 621.695,401.647C621.918,402.441 621.865,403.103 621.57,403.649C603.613,398.782 581.914,397.675 559.314,401.387C533.26,405.667 510.811,415.563 495.414,428.172Z" style="fill:white;"/>
                </g>
                <g transform="matrix(-0.339094,-0.895602,0.988941,-0.374434,319.711,1381.15)">
                    <path d="M495.414,428.172C494.968,424.983 482.9,423.441 470.793,416.146C451.108,404.283 428.033,384.322 427.123,376.914C422.524,339.456 459.762,316.09 518.085,325.335C571.938,333.873 614.443,375.821 621.695,401.647C621.918,402.441 621.865,403.103 621.57,403.649C603.613,398.782 581.914,397.675 559.314,401.387C533.26,405.667 510.811,415.563 495.414,428.172Z" style="fill:white;"/>
                </g>
                <g transform="matrix(-0.339094,-0.895602,0.988941,-0.374434,527.203,1040.18)">
                    <path d="M495.414,428.172C494.968,424.983 482.9,423.441 470.793,416.146C451.108,404.283 428.033,384.322 427.123,376.914C422.524,339.456 459.762,316.09 518.085,325.335C571.938,333.873 614.443,375.821 621.695,401.647C621.918,402.441 621.865,403.103 621.57,403.649C603.613,398.782 581.914,397.675 559.314,401.387C533.26,405.667 510.811,415.563 495.414,428.172Z" style="fill:white;"/>
                </g>
                <g transform="matrix(1.01563,-0.338724,-0.305647,-0.916455,579.106,795.685)">
                    <path d="M390.969,338.912C383.347,334.269 362.938,332.578 348.895,313.527C324.922,281.007 381.297,234.727 429.861,239.293C462.632,242.374 501.786,287.789 516.53,321.846C521.848,334.13 494.328,327.316 484.918,337.033L481.815,338.443C410.938,326.257 423.829,325.88 395.786,340.419L390.969,338.912Z" style="fill:white;"/>
                </g>
                <g transform="matrix(-0.137916,-1.06171,0.958031,-0.124448,575.129,799.222)">
                    <path d="M390.969,338.912C383.347,334.269 362.938,332.578 348.895,313.527C324.922,281.007 381.297,234.727 429.861,239.293C462.632,242.374 501.786,287.789 516.53,321.846C521.848,334.13 494.328,327.316 484.918,337.033L481.815,338.443C410.938,326.257 423.829,325.88 395.786,340.419L390.969,338.912Z" style="fill:white;"/>
                </g>
                <g id="spitze" transform="matrix(0.501269,-0.703564,1.07809,0.768111,445.621,374.239)">
                    <path d="M333.067,241.561C332.855,240.225 333.237,238.801 334.347,237.195C354.379,208.225 396.214,182.358 453.693,185.888C502.602,188.893 550.663,211.418 570.782,227.308C572.666,228.109 573.771,228.864 573.653,229.697C574.33,230.293 574.961,230.877 575.545,231.447C577.684,233.535 572.519,234.84 566.222,237.666C562.592,240.796 558.065,244.12 552.789,247.499C552.335,248.137 551.915,248.807 551.536,249.512C550.877,249.513 550.22,249.514 549.564,249.515C528.725,262.23 497.802,275.347 464.549,281.649C409.163,292.146 361.399,267.093 334.028,244.822C330.825,242.216 330.982,242.083 333.067,241.561Z" style="fill:white;"/>
                </g>
            </g>
        </g>
    </g>
</svg>
