<?xml version="1.0" encoding="UTF-8" standalone="no"?><!DOCTYPE svg PUBLIC "-//W3C//DTD SVG 1.1//EN" "http://www.w3.org/Graphics/SVG/1.1/DTD/svg11.dtd"><svg width="100%" height="100%" viewBox="0 0 1250 1250" version="1.1" xmlns="http://www.w3.org/2000/svg" xmlns:xlink="http://www.w3.org/1999/xlink" xml:space="preserve" xmlns:serif="http://www.serif.com/" style="fill-rule:evenodd;clip-rule:evenodd;stroke-linejoin:round;stroke-miterlimit:2;"><g id="Omnipod"><path d="M425.609,228.555l633.562,-0c49.16,-0 89.071,40.405 89.071,90.173l-0,614.455c-0,47.231 -37.877,85.577 -84.531,85.577l-638.102,0c-179.111,0 -324.526,-177.039 -324.526,-395.103c-0,-218.063 145.415,-395.102 324.526,-395.102Z" style="fill:#fff;stroke:#000;stroke-width:41.67px;"/><path d="M410.597,188.003l682.419,0c52.951,0 95.94,44.69 95.94,99.735l0,679.607c0,52.24 -40.798,94.652 -91.05,94.652l-687.309,-0c-192.924,-0 -349.553,-195.812 -349.553,-436.997c-0,-241.185 156.629,-436.997 349.553,-436.997Zm15.012,40.552c-179.111,-0 -324.526,177.039 -324.526,395.102c-0,218.064 145.415,395.103 324.526,395.103l638.102,0c46.654,0 84.531,-38.346 84.531,-85.577l-0,-614.455c-0,-49.768 -39.911,-90.173 -89.071,-90.173l-633.562,-0Z" style="fill:#fff;stroke:#fff;stroke-width:1.39px;stroke-linecap:round;stroke-miterlimit:1.5;"/></g></svg>