<?xml version="1.0" encoding="UTF-8" standalone="no"?>
<!DOCTYPE svg PUBLIC "-//W3C//DTD SVG 1.1//EN" "http://www.w3.org/Graphics/SVG/1.1/DTD/svg11.dtd">
<svg width="100%" height="100%" viewBox="0 0 900 900" version="1.1" xmlns="http://www.w3.org/2000/svg" xmlns:xlink="http://www.w3.org/1999/xlink" xml:space="preserve" xmlns:serif="http://www.serif.com/" style="fill-rule:evenodd;clip-rule:evenodd;stroke-linejoin:round;stroke-miterlimit:2;">
    <g id="Nano300" transform="matrix(1.06693,0,0,0.894763,-22.9022,53.0062)">
        <g transform="matrix(0.734428,0,0,1.19636,65.8481,-93.8717)">
            <path d="M808.287,225.587L257.78,225.587L257.78,204.342L808.287,204.342L808.287,225.587ZM808.287,693.653L257.78,693.653L257.78,674.655L808.287,674.655L808.287,693.653Z" style="fill:white;"/>
        </g>
        <g transform="matrix(0.937272,0,0,1.11761,21.4656,-59.2405)">
            <rect x="383.828" y="698.233" width="0.254" height="1.379" style="fill:white;"/>
        </g>
        <g transform="matrix(1,0,0,1.20239,-3.90799e-14,-98.924)">
            <path d="M255.114,207.661L255.114,694.895L171.256,694.895C119.065,694.895 76.692,652.874 76.692,601.116L76.692,301.503C76.692,249.71 119.093,207.661 171.32,207.661L255.114,207.661Z" style="fill:white;"/>
        </g>
        <g transform="matrix(1.17702,0,0,154.042,5.70373,-49139.7)">
            <path d="M58.998,322.69C32.973,322.61 13.391,322.27 13.391,321.864C13.391,321.457 32.973,321.117 58.998,321.038L58.998,322.69Z" style="fill:white;"/>
        </g>
        <g transform="matrix(1.36398,0,0,0.915122,-362.574,42.379)">
            <path d="M681.44,147.059C700.933,128.679 722.588,118.438 745.389,118.438C830.721,118.438 900,261.876 900,438.552C900,615.228 830.721,758.666 745.389,758.666C724.314,758.666 704.219,749.917 685.904,734.078L745.389,734.078L745.389,733.317C821.006,728.932 881.749,599.4 881.749,440.482C881.749,281.564 821.006,152.032 745.389,147.647L745.389,147.059L681.44,147.059Z" style="fill:white;"/>
        </g>
    </g>
</svg>
