<?xml version="1.0" encoding="UTF-8" standalone="no"?><!DOCTYPE svg PUBLIC "-//W3C//DTD SVG 1.1//EN" "http://www.w3.org/Graphics/SVG/1.1/DTD/svg11.dtd"><svg width="100%" height="100%" viewBox="0 0 1250 1250" version="1.1" xmlns="http://www.w3.org/2000/svg" xmlns:xlink="http://www.w3.org/1999/xlink" xml:space="preserve" xmlns:serif="http://www.serif.com/" style="fill-rule:evenodd;clip-rule:evenodd;stroke-linejoin:round;stroke-miterlimit:2;"><g id="Nano300"><path d="M945.431,292.354l-599.119,0l-0,-31.586l599.119,0l0,31.586Zm0,695.896l-599.119,0l-0,-28.244l599.119,-0l0,28.244Z" style="fill:#fff;"/><rect x="533.094" y="969.768" width="0.353" height="1.915" style="fill:#fff;"/><path d="M346.23,260.978l0,728.044l-124.265,-0c-77.338,-0 -140.128,-62.79 -140.128,-140.128l0,-447.693c0,-77.391 62.832,-140.223 140.223,-140.223l124.17,0Z" style="fill:#fff;"/><path d="M79.545,779.607c-45.393,-15.243 -79.545,-80.3 -79.545,-158.144c-0,-77.845 34.152,-142.902 79.545,-158.145l-0,316.289Z" style="fill:#fff;"/><path d="M808.245,293.528c39.4,-20.903 83.169,-32.55 129.255,-32.55c172.473,0 312.5,163.125 312.5,364.049c0,200.923 -140.027,364.048 -312.5,364.048c-42.597,0 -83.215,-9.95 -120.232,-27.962l120.232,-0l0,-0.866c152.836,-4.987 275.61,-152.297 275.61,-333.025c0,-180.729 -122.774,-328.039 -275.61,-333.026l0,-0.668l-129.255,-0Z" style="fill:#fff;"/></g></svg>