<?xml version="1.0" encoding="UTF-8" standalone="no"?>
<!DOCTYPE svg PUBLIC "-//W3C//DTD SVG 1.1//EN" "http://www.w3.org/Graphics/SVG/1.1/DTD/svg11.dtd">
<svg width="100%" height="100%" viewBox="0 0 1320 1320" version="1.1" xmlns="http://www.w3.org/2000/svg" xmlns:xlink="http://www.w3.org/1999/xlink" xml:space="preserve" xmlns:serif="http://www.serif.com/" style="fill-rule:evenodd;clip-rule:evenodd;stroke-linejoin:round;stroke-miterlimit:2;">
    <g id="profilefill_small" transform="matrix(0.961184,0,0,0.975644,29.0571,-9.621)">
        <g id="buttonpanel">
            <g id="profilefill_small1" serif:id="profilefill_small">
                <g transform="matrix(0.938852,0,0,1.09848,37.2302,-104.024)">
                    <rect x="219.265" y="1056.32" width="881.471" height="41.848" style="fill:white;"/>
                </g>
                <g transform="matrix(1.0358,0,0,1.25442,13.4011,-128.357)">
                    <path d="M179.051,981.047C190.152,802.426 383.835,660 620.797,660C857.758,660 1051.44,802.426 1062.54,981.047L1011.25,981.047C1000.21,823.994 829.483,699.06 620.797,699.06C412.11,699.06 241.387,823.994 230.338,981.047L179.051,981.047Z" style="fill:white;"/>
                </g>
                <g transform="matrix(1.26686,0,0,1.28587,-173.248,-208.687)">
                    <path d="M658.964,341.176C749.208,341.176 822.475,412.606 822.475,500.588C822.475,588.57 749.208,660 658.964,660C568.72,660 495.453,588.57 495.453,500.588C495.453,412.606 568.72,341.176 658.964,341.176ZM658.964,373.058C586.769,373.058 528.156,430.202 528.156,500.588C528.156,570.973 586.769,628.118 658.964,628.118C731.16,628.118 789.773,570.973 789.773,500.588C789.773,430.202 731.16,373.058 658.964,373.058Z" style="fill:white;"/>
                </g>
            </g>
        </g>
    </g>
</svg>
