<?xml version="1.0" encoding="UTF-8" standalone="no"?>
<!DOCTYPE svg PUBLIC "-//W3C//DTD SVG 1.1//EN" "http://www.w3.org/Graphics/SVG/1.1/DTD/svg11.dtd">
<svg width="100%" height="100%" viewBox="0 0 1320 1320" version="1.1" xmlns="http://www.w3.org/2000/svg" xmlns:xlink="http://www.w3.org/1999/xlink" xml:space="preserve" xmlns:serif="http://www.serif.com/" style="fill-rule:evenodd;clip-rule:evenodd;stroke-linejoin:round;stroke-miterlimit:2;">
    <g id="UI-UX" serif:id="UI/UX" transform="matrix(1.28214,0,0,1.2534,-215.634,-224.016)">
        <g id="buttonpanel">
            <g id="UI-UX1" serif:id="UI/UX">
                <g transform="matrix(1.19305,0,0,1.20708,-115.519,-134.19)">
                    <path d="M677.152,259.308L729.586,364.481C758.425,369.853 786.436,379.055 812.891,391.847L916.454,337.921C920.764,340.967 925.018,344.092 929.215,347.295L910.491,463.541C930.7,485.026 948.011,509.116 961.977,535.187L1077.11,553.105C1078.83,558.13 1080.45,563.187 1081.99,568.272L999.257,651.191C1003.12,680.581 1003.12,710.359 999.257,739.749L1081.99,822.668C1080.45,827.753 1078.83,832.809 1077.11,837.835L961.977,855.753C948.011,881.823 930.7,905.914 910.491,927.399L929.215,1043.64C925.018,1046.85 920.764,1049.97 916.454,1053.02L812.891,999.093C786.436,1011.88 758.425,1021.09 729.586,1026.46L677.152,1131.63C671.895,1131.73 666.636,1131.73 661.379,1131.63L608.945,1026.46C580.106,1021.09 552.095,1011.88 525.64,999.093L422.076,1053.02C417.767,1049.97 413.513,1046.85 409.316,1043.64L428.039,927.399C407.831,905.914 390.52,881.823 376.554,855.753L261.419,837.835C259.703,832.809 258.078,827.753 256.545,822.668L339.274,739.749C335.416,710.359 335.416,680.581 339.274,651.191L256.545,568.272C258.078,563.187 259.703,558.13 261.419,553.105L376.554,535.187C390.52,509.116 407.831,485.026 428.039,463.541L409.316,347.295C413.513,344.092 417.767,340.967 422.076,337.921L525.64,391.847C552.095,379.055 580.106,369.853 608.945,364.481L661.379,259.308C666.636,259.211 671.895,259.211 677.152,259.308ZM669.265,380.416C841.249,380.416 980.878,521.587 980.878,695.47C980.878,869.353 841.249,1010.52 669.265,1010.52C497.282,1010.52 357.653,869.353 357.653,695.47C357.653,521.587 497.282,380.416 669.265,380.416Z" style="fill:white;"/>
                </g>
                <g transform="matrix(0.711908,0,0,0.692785,161.929,219.377)">
                    <g transform="matrix(398.584,0,0,398.584,994.307,841.622)">
                    </g>
                    <text x="440.611px" y="841.622px" style="font-family:'ArialMT', 'Arial', sans-serif;font-size:398.584px;fill:white;">UX</text>
                </g>
            </g>
        </g>
    </g>
</svg>
