<?xml version="1.0" encoding="UTF-8" standalone="no"?>
<!DOCTYPE svg PUBLIC "-//W3C//DTD SVG 1.1//EN" "http://www.w3.org/Graphics/SVG/1.1/DTD/svg11.dtd">
<svg width="100%" height="100%" viewBox="0 0 1320 1320" version="1.1" xmlns="http://www.w3.org/2000/svg" xmlns:xlink="http://www.w3.org/1999/xlink" xml:space="preserve" xmlns:serif="http://www.serif.com/" style="fill-rule:evenodd;clip-rule:evenodd;stroke-linejoin:round;stroke-miterlimit:2;">
    <g id="Loop" transform="matrix(6.07153e-17,1.01671,-1.02926,6.245e-17,1287.46,82.833)">
        <g transform="matrix(1.0403,0,0,1.00715,-48.002,-12.7164)">
            <g transform="matrix(-2.96418,-1.65631,1.34196,-2.50021,1872.22,3677.48)">
                <path d="M694.635,574.28L702.597,590.962C665.438,616.914 642.548,664.875 642.548,716.779C642.548,787.282 684.394,847.609 741.792,859.852L739.027,878.822C674.018,864.956 626.624,796.63 626.624,716.779C626.624,657.993 652.55,603.673 694.635,574.28Z" style="fill:white;"/>
            </g>
            <g transform="matrix(1.18079e-16,-1.88251,2.03493,1.08913e-16,-622.84,2105.91)">
                <path d="M554.678,494.314L623.858,591.884L485.499,591.884L554.678,494.314Z" style="fill:white;"/>
            </g>
        </g>
        <g transform="matrix(-1.0403,-1.26201e-16,1.24683e-16,-1.00715,1144.3,1241.47)">
            <g transform="matrix(-2.96418,-1.65631,1.34196,-2.50021,1872.22,3677.48)">
                <path d="M694.635,574.28L702.597,590.962C665.438,616.914 642.548,664.875 642.548,716.779C642.548,787.282 684.394,847.609 741.792,859.852L739.027,878.822C674.018,864.956 626.624,796.63 626.624,716.779C626.624,657.993 652.55,603.673 694.635,574.28Z" style="fill:white;"/>
            </g>
            <g transform="matrix(1.18079e-16,-1.88251,2.03493,1.08913e-16,-622.84,2105.91)">
                <path d="M554.678,494.314L623.858,591.884L485.499,591.884L554.678,494.314Z" style="fill:white;"/>
            </g>
        </g>
    </g>
</svg>
