<?xml version="1.0" encoding="UTF-8" standalone="no"?>
<!DOCTYPE svg PUBLIC "-//W3C//DTD SVG 1.1//EN" "http://www.w3.org/Graphics/SVG/1.1/DTD/svg11.dtd">
<svg width="100%" height="100%" viewBox="0 0 1320 1320" version="1.1" xmlns="http://www.w3.org/2000/svg" xmlns:xlink="http://www.w3.org/1999/xlink" xml:space="preserve" xmlns:serif="http://www.serif.com/" style="fill-rule:evenodd;clip-rule:evenodd;stroke-linecap:round;stroke-miterlimit:1;">
    <g id="carbs" transform="matrix(1.45573,0,0,1.60006,-207.216,-1180.56)">
        <g id="buttonpanel">
            <g id="carbs1" serif:id="carbs">
                <g id="Bowl" transform="matrix(1.00276,0,0,1.007,-59.1476,-46.4189)">
                    <g transform="matrix(1.02882,0,0,2.08182,-28.6684,-629.246)">
                        <path d="M1043.18,860.482C1043.18,971.131 871.871,1060.96 660.872,1060.96C449.873,1060.96 278.568,971.131 278.568,860.482L311.812,860.482C311.812,961.509 468.22,1043.53 660.872,1043.53C853.523,1043.53 1009.93,961.509 1009.93,860.482L1043.18,860.482Z" style="fill:white;"/>
                    </g>
                    <g id="schüsselrand_schmal">
                        <g transform="matrix(1.13277,-2.02905e-16,3.01778e-16,1.36514,-97.3631,-127.159)">
                            <path d="M1008.09,944.432C947.474,1013.2 814.726,1060.96 660.872,1060.96C507.018,1060.96 374.269,1013.2 313.649,944.432L350.658,944.432C408.731,1003.28 525.908,1043.53 660.872,1043.53C795.836,1043.53 913.012,1003.28 971.085,944.432L1008.09,944.432Z" style="fill:white;"/>
                        </g>
                        <g transform="matrix(-1.13277,1.00004e-16,-8.06755e-17,-1.36514,1399.86,2451.4)">
                            <path d="M478.558,1016.58C531.633,1033.67 594.074,1043.53 660.872,1043.53C795.836,1043.53 913.012,1003.28 971.085,944.432L1008.09,944.432C947.474,1013.2 814.726,1060.96 660.872,1060.96C590.206,1060.96 523.992,1050.89 467.175,1033.33C470.955,1027.83 474.752,1022.24 478.558,1016.58ZM412.176,1012.7C370.664,994.027 336.867,970.77 313.649,944.432L350.658,944.432C369.34,963.362 394.138,980.367 423.676,994.728C419.751,1000.78 415.915,1006.78 412.176,1012.7Z" style="fill:white;"/>
                        </g>
                    </g>
                    <g id="suppenrand" transform="matrix(0.771062,0,0,1.17824,92.198,574.651)">
                        <g id="suppenspiegel">
                            <path id="suppenrand1" serif:id="suppenrand" d="M552.977,506.966C446.663,517.4 381.758,536.038 381.758,556.132C381.758,561.212 385.923,566.27 394.145,571.173C385.923,566.27 381.758,561.212 381.758,556.132C381.758,536.038 446.663,517.4 552.977,506.966Z" style="fill:white;stroke:white;stroke-width:21.15px;"/>
                        </g>
                    </g>
                </g>
                <g id="Loeffel" transform="matrix(1,0,0,1,47.7611,-2.82029)">
                    <g transform="matrix(1.15902,0.412884,-0.371076,0.722421,45.0414,439.79)">
                        <path d="M735.635,516.616C719.202,527.833 705.14,547.918 695.208,573.664C680.966,579.855 666.756,587.492 652.723,596.614C665.214,526.975 696.559,472.805 735.752,454.145C735.567,475.537 735.532,496.413 735.635,516.616ZM792.542,452.581C828.724,467.674 858.641,512.834 873.931,572.829C859.878,565.89 844.967,560.76 829.444,557.51C819.099,537.029 805.81,521.554 790.806,513.322C791.501,493.664 792.084,473.37 792.542,452.581Z" style="fill:white;stroke:white;stroke-width:4.94px;"/>
                    </g>
                    <g id="Loeffel1" serif:id="Loeffel" transform="matrix(0.862386,0.313354,-0.32384,0.600622,81.1702,409.443)">
                        <path d="M975.029,637.714C969.734,639.134 964.398,640.615 959.023,642.158C952.168,585.16 948.184,517.13 948.184,444.1C948.184,243.417 978.272,80.487 1015.33,80.487C1052.39,80.487 1082.48,243.417 1082.48,444.1C1082.48,506.935 1079.53,566.069 1074.34,617.659C1068.55,618.391 1062.65,619.227 1056.64,620.166C1062.74,566.095 1066.33,499.614 1066.33,427.772C1066.33,246.643 1043.48,99.589 1015.33,99.589C987.186,99.589 964.333,246.643 964.333,427.772C964.333,502.987 968.274,572.327 974.898,627.7C974.938,631.051 974.982,634.389 975.029,637.714Z" style="fill:white;stroke:white;stroke-width:25.57px;"/>
                    </g>
                </g>
            </g>
        </g>
    </g>
</svg>
