<?xml version="1.0" encoding="UTF-8" standalone="no"?>
<!DOCTYPE svg PUBLIC "-//W3C//DTD SVG 1.1//EN" "http://www.w3.org/Graphics/SVG/1.1/DTD/svg11.dtd">
<svg width="100%" height="100%" viewBox="0 0 1320 1320" version="1.1" xmlns="http://www.w3.org/2000/svg" xmlns:xlink="http://www.w3.org/1999/xlink" xml:space="preserve" xmlns:serif="http://www.serif.com/" style="fill-rule:evenodd;clip-rule:evenodd;stroke-linejoin:round;stroke-miterlimit:2;">
    <g transform="matrix(38.1136,-7.13087,7.04313,37.6447,167.948,284.576)">
        <g id="IOB">
            <g>
                <rect x="0" y="0" width="23.117" height="22.481" style="fill:white;fill-opacity:0;"/>
                <path d="M0.188,22.291C0.414,22.518 0.789,22.51 1.023,22.275L5.375,17.924L4.531,17.088L0.188,21.44C-0.055,21.674 -0.07,22.057 0.188,22.291ZM3.688,16.916L5.594,18.799C6.578,19.775 7.922,19.752 8.945,18.729L19.508,8.166L18.531,7.182L7.953,17.76C7.523,18.197 6.945,18.182 6.492,17.736L4.75,15.994C4.305,15.557 4.305,14.979 4.742,14.533L15.313,3.971L14.328,2.986L3.766,13.557C2.727,14.604 2.703,15.94 3.688,16.916ZM5.305,12.432L7.75,14.893C7.93,15.065 8.188,15.057 8.359,14.885C8.516,14.721 8.508,14.447 8.352,14.291L5.898,11.846L5.305,12.432ZM7.406,10.354L9.852,12.799C10.024,12.963 10.281,12.963 10.453,12.799C10.609,12.635 10.602,12.369 10.445,12.205L7.992,9.752L7.406,10.354ZM9.5,8.244L11.945,10.705C12.117,10.861 12.375,10.869 12.547,10.705C12.711,10.533 12.711,10.275 12.539,10.096L10.094,7.658L9.5,8.244ZM11.594,6.158L14.039,8.611C14.211,8.775 14.469,8.775 14.633,8.611C14.805,8.455 14.797,8.174 14.633,8.01L12.188,5.564L11.594,6.158ZM12.766,2.424L20.078,9.736C20.352,10.01 20.789,10.01 21.055,9.736C21.328,9.471 21.328,9.025 21.055,8.76L13.75,1.447C13.469,1.166 13.039,1.182 12.766,1.447C12.5,1.721 12.484,2.143 12.766,2.424ZM14.547,2.775L19.711,7.963L20.461,7.205C20.734,6.939 20.742,6.502 20.469,6.236L18.898,4.674L20.305,3.275L21.531,4.51C21.805,4.775 22.25,4.775 22.508,4.51C22.781,4.244 22.781,3.799 22.508,3.525L19.188,0.205C18.914,-0.068 18.477,-0.068 18.203,0.205C17.938,0.463 17.938,0.908 18.203,1.182L19.438,2.416L18.047,3.807L16.266,2.033C16.008,1.775 15.563,1.768 15.289,2.033L14.547,2.775Z" style="fill:white;fill-rule:nonzero;"/>
            </g>
        </g>
    </g>
</svg>
