<?xml version="1.0" encoding="UTF-8" standalone="no"?><!DOCTYPE svg PUBLIC "-//W3C//DTD SVG 1.1//EN" "http://www.w3.org/Graphics/SVG/1.1/DTD/svg11.dtd"><svg width="100%" height="100%" viewBox="0 0 1250 1250" version="1.1" xmlns="http://www.w3.org/2000/svg" xmlns:xlink="http://www.w3.org/1999/xlink" xml:space="preserve" xmlns:serif="http://www.serif.com/" style="fill-rule:evenodd;clip-rule:evenodd;stroke-linejoin:round;stroke-miterlimit:2;"><g id="Nano200"><path d="M945.431,231.396l-599.119,0l-0,-37.294l599.119,-0l0,37.294Zm0,821.671l-599.119,0l-0,-33.35l599.119,0l0,33.35Z" style="fill:#fff;"/><rect x="533.094" y="1031.24" width="0.353" height="2.261" style="fill:#fff;"/><path d="M346.23,194.349l0,859.629l-124.265,-0c-77.338,-0 -140.128,-62.789 -140.128,-140.128l0,-579.278c0,-77.391 62.832,-140.223 140.223,-140.223l124.17,0Z" style="fill:#fff;"/><path d="M79.545,806.715c-45.393,-17.999 -79.545,-94.814 -79.545,-186.728c-0,-91.914 34.152,-168.729 79.545,-186.728l-0,373.456Z" style="fill:#fff;"/><path d="M808.245,232.782c39.4,-24.681 83.169,-38.433 129.255,-38.433c172.473,0 312.5,192.608 312.5,429.846c0,237.239 -140.027,429.846 -312.5,429.846c-42.597,-0 -83.215,-11.749 -120.232,-33.016l120.232,-0l0,-1.022c152.836,-5.888 275.61,-179.823 275.61,-393.216c0,-213.393 -122.774,-387.328 -275.61,-393.216l0,-0.789l-129.255,-0Z" style="fill:#fff;"/></g></svg>