<?xml version="1.0" encoding="UTF-8" standalone="no"?>
<!DOCTYPE svg PUBLIC "-//W3C//DTD SVG 1.1//EN" "http://www.w3.org/Graphics/SVG/1.1/DTD/svg11.dtd">
<svg width="100%" height="100%" viewBox="0 0 1320 1320" version="1.1" xmlns="http://www.w3.org/2000/svg" xmlns:xlink="http://www.w3.org/1999/xlink" xml:space="preserve" xmlns:serif="http://www.serif.com/" style="fill-rule:evenodd;clip-rule:evenodd;stroke-linejoin:round;stroke-miterlimit:2;">
    <g transform="matrix(1.11248,0,0,1.10033,-84.542,-105.244)">
        <g id="buttonpanel">
            <path d="M677.152,259.308L734.114,339.633C765.119,345.409 795.232,355.302 823.673,369.054L916.454,337.921C920.764,340.967 925.018,344.092 929.215,347.295L928.6,446.13C950.325,469.228 968.936,495.127 983.95,523.154L1077.11,553.105C1078.83,558.13 1080.45,563.187 1081.99,568.272L1024.03,647.866C1028.18,679.464 1028.18,711.476 1024.03,743.073L1081.99,822.668C1080.45,827.753 1078.83,832.809 1077.11,837.835L983.95,867.786C968.936,895.813 950.325,921.712 928.6,944.81L929.215,1043.64C925.018,1046.85 920.764,1049.97 916.454,1053.02L823.673,1021.89C795.232,1035.64 765.119,1045.53 734.114,1051.31L677.152,1131.63C671.895,1131.73 666.636,1131.73 661.379,1131.63L604.416,1051.31C573.412,1045.53 543.299,1035.64 514.858,1021.89L422.076,1053.02C417.767,1049.97 413.513,1046.85 409.316,1043.64L409.93,944.81C388.205,921.712 369.594,895.813 354.58,867.786L261.419,837.835C259.703,832.809 258.078,827.753 256.545,822.668L314.502,743.073C310.354,711.476 310.354,679.464 314.502,647.866L256.545,568.272C258.078,563.187 259.703,558.13 261.419,553.105L354.58,523.154C369.594,495.127 388.205,469.228 409.93,446.13L409.316,347.295C413.513,344.092 417.767,340.967 422.076,337.921L514.858,369.054C543.299,355.302 573.412,345.409 604.416,339.633L661.379,259.308C666.636,259.211 671.895,259.211 677.152,259.308ZM669.265,407.653C826.381,407.653 953.939,536.619 953.939,695.47C953.939,854.321 826.381,983.287 669.265,983.287C512.15,983.287 384.592,854.321 384.592,695.47C384.592,536.619 512.15,407.653 669.265,407.653Z" style="fill:white;"/>
        </g>
    </g>
</svg>
