<?xml version="1.0" encoding="UTF-8" standalone="no"?><!DOCTYPE svg PUBLIC "-//W3C//DTD SVG 1.1//EN" "http://www.w3.org/Graphics/SVG/1.1/DTD/svg11.dtd"><svg width="100%" height="100%" viewBox="0 0 1250 1250" version="1.1" xmlns="http://www.w3.org/2000/svg" xmlns:xlink="http://www.w3.org/1999/xlink" xml:space="preserve" xmlns:serif="http://www.serif.com/" style="fill-rule:evenodd;clip-rule:evenodd;stroke-linejoin:round;stroke-miterlimit:2;"><g id="Nano200"><path d="M232.325,439.519l-0,464.169l-37.295,0l0,-599.119l0.384,-0c5.797,-168.815 196.119,-304.569 429.71,-304.569c237.238,0 429.846,140.027 429.846,312.5c-0,7.118 -0.328,14.18 -0.974,21.18l-0,570.008l-33.35,0l0,-596.692c-9.795,-150.27 -182.105,-270.106 -392.93,-270.106c-213.394,-0 -387.328,122.774 -393.216,275.61l-0.789,0l-0,129.255c-0.466,-0.744 -0.928,-1.489 -1.386,-2.236Z" style="fill:#fff;"/><path d="M998.134,212.956l23.292,-0l-0,690.732l-789.07,0l-0,-690.732l29.755,-0c31.147,-104.011 184.169,-183.084 368.011,-183.084c183.842,0 336.865,79.073 368.012,183.084Z" style="fill:#fff;"/><path d="M195.278,903.77l859.629,-0l-0,124.265c-0,77.338 -62.79,140.128 -140.129,140.128l-579.277,-0c-77.391,-0 -140.223,-62.832 -140.223,-140.223l0,-124.17Z" style="fill:#7a7e83;"/><path d="M807.643,1170.45c-17.998,45.393 -94.813,79.545 -186.727,79.545c-91.915,0 -168.729,-34.152 -186.728,-79.545l373.455,0Z" style="fill:#fff;"/></g></svg>